<?xml version="1.0" standalone="no"?>
<!DOCTYPE svg PUBLIC "-//W3C//DTD SVG 20010904//EN"
 "http://www.w3.org/TR/2001/REC-SVG-20010904/DTD/svg10.dtd">
<svg version="1.0" xmlns="http://www.w3.org/2000/svg"
 width="959.000000pt" height="959.000000pt" viewBox="0 0 959.000000 959.000000"
 preserveAspectRatio="xMidYMid meet">
<metadata>
Created by potrace 1.14, written by Peter Selinger 2001-2017
</metadata>
<g transform="translate(0.000000,959.000000) scale(0.100000,-0.100000)"
fill="#000000" stroke="none">
<path d="M5549 8956 c-2 -2 -35 -7 -74 -10 -38 -3 -92 -9 -120 -13 -27 -3 -67
-7 -87 -7 -21 -1 -38 -4 -38 -8 0 -4 -8 -7 -17 -6 -16 0 -50 -5 -113 -17 -10
-2 -40 -7 -67 -11 -26 -3 -52 -10 -58 -13 -5 -4 -19 -8 -30 -9 -23 -1 -53 -7
-110 -22 -41 -11 -65 -17 -100 -24 -11 -2 -54 -14 -95 -26 -41 -11 -82 -23
-91 -25 -9 -2 -39 -11 -65 -20 -27 -9 -56 -18 -64 -20 -8 -2 -27 -8 -42 -14
-16 -6 -28 -7 -28 -4 0 4 -5 2 -12 -5 -7 -7 -18 -12 -24 -12 -7 0 -25 -5 -41
-12 -15 -6 -30 -12 -33 -13 -3 0 -30 -9 -60 -20 -30 -11 -58 -18 -62 -17 -5 1
-8 -3 -8 -10 0 -6 -3 -9 -6 -5 -4 3 -25 -3 -48 -15 -22 -11 -42 -20 -43 -20
-3 2 -29 -6 -68 -21 -16 -7 -33 -11 -37 -9 -5 1 -8 -2 -8 -6 0 -4 -17 -14 -37
-21 -21 -8 -63 -25 -93 -39 -30 -15 -57 -27 -60 -27 -43 -12 -60 -19 -60 -26
0 -5 -6 -9 -12 -9 -16 0 -345 -157 -358 -170 -3 -3 -27 -16 -55 -30 -27 -14
-51 -28 -53 -32 -2 -5 -9 -8 -16 -8 -14 0 -332 -184 -358 -208 -10 -8 -18 -11
-18 -6 0 5 -4 4 -8 -1 -4 -6 -59 -44 -122 -85 -63 -41 -117 -77 -120 -80 -3
-3 -25 -19 -50 -35 -54 -36 -65 -44 -91 -67 -10 -10 -19 -15 -19 -10 0 4 -4 2
-8 -3 -12 -17 -127 -100 -134 -97 -5 1 -8 -2 -8 -7 0 -5 -24 -28 -53 -50 -51
-41 -110 -89 -150 -123 -11 -10 -24 -18 -29 -18 -5 0 -7 -4 -4 -8 3 -5 -6 -15
-20 -23 -14 -7 -30 -21 -35 -31 -5 -10 -14 -18 -19 -18 -17 0 -410 -401 -410
-418 0 -4 -9 -14 -20 -22 -11 -8 -20 -18 -20 -22 0 -4 -16 -24 -35 -45 -19
-21 -35 -43 -35 -50 0 -6 -4 -13 -8 -15 -5 -1 -26 -28 -48 -58 -21 -30 -44
-61 -51 -68 -6 -6 -15 -21 -18 -32 -3 -11 -11 -20 -16 -20 -5 0 -9 -7 -9 -15
0 -8 -7 -15 -17 -15 -9 0 -14 -3 -10 -6 5 -5 0 -13 -51 -72 -12 -15 -26 -32
-30 -37 -35 -48 -67 -91 -72 -95 -4 -3 -21 -26 -38 -52 -18 -25 -38 -52 -44
-60 -7 -7 -31 -40 -53 -73 -22 -33 -57 -84 -78 -112 -21 -29 -34 -53 -30 -53
4 0 3 -4 -2 -8 -15 -10 -98 -154 -98 -169 0 -7 -3 -13 -7 -13 -7 0 -27 -44
-58 -125 -25 -66 -29 -79 -30 -88 -1 -4 -8 -20 -16 -35 -8 -15 -38 -88 -66
-162 -28 -74 -57 -148 -63 -165 -7 -16 -12 -32 -13 -35 0 -3 -5 -16 -11 -30
-6 -14 -18 -47 -27 -75 -10 -27 -22 -55 -28 -62 -5 -7 -7 -17 -3 -23 3 -5 1
-10 -4 -10 -6 0 -10 -3 -9 -7 1 -5 -4 -24 -11 -43 -8 -19 -15 -39 -16 -45 -3
-11 -134 -398 -136 -402 -1 -2 -3 -7 -4 -13 -1 -5 -3 -11 -5 -12 -1 -2 -3 -11
-5 -20 -3 -18 -23 -84 -32 -108 -3 -8 -7 -22 -9 -30 -2 -8 -13 -51 -25 -95
-36 -135 -49 -189 -53 -215 -3 -14 -10 -47 -16 -75 -15 -62 -17 -74 -24 -116
-3 -19 -7 -43 -10 -54 -2 -11 -7 -45 -10 -76 -4 -31 -9 -67 -12 -80 -3 -13 -7
-100 -9 -194 -3 -148 8 -281 29 -350 2 -5 6 -23 10 -40 11 -43 105 -230 127
-254 10 -11 19 -24 19 -29 0 -5 8 -18 18 -30 9 -11 24 -30 32 -42 41 -60 187
-211 250 -259 19 -14 42 -33 51 -41 37 -32 49 -40 59 -40 5 0 10 -4 10 -10 0
-5 7 -10 15 -10 8 0 15 -4 15 -10 0 -5 4 -10 10 -10 5 0 34 -16 65 -35 30 -20
55 -32 55 -28 0 4 4 4 8 -2 10 -15 49 -35 67 -35 8 0 15 -4 15 -10 0 -5 5 -10
10 -10 6 0 27 -7 48 -17 20 -9 39 -17 42 -18 3 -1 18 -7 33 -13 16 -7 34 -12
41 -12 6 0 16 -4 21 -9 6 -6 22 -12 37 -15 14 -2 35 -9 45 -14 10 -6 32 -12
48 -15 17 -3 49 -12 72 -20 22 -9 43 -13 46 -10 3 2 14 0 24 -5 10 -5 34 -12
53 -15 19 -3 49 -9 65 -13 17 -3 38 -6 48 -6 9 0 17 -4 17 -9 0 -6 4 -8 8 -5
4 3 26 0 48 -5 21 -6 55 -12 74 -16 19 -3 43 -10 53 -15 10 -5 21 -7 24 -4 3
3 14 1 24 -4 10 -6 37 -12 60 -15 23 -3 46 -8 51 -11 5 -3 24 -8 41 -11 18 -2
53 -10 79 -18 25 -7 49 -11 52 -8 3 4 6 0 6 -7 0 -7 3 -11 6 -8 3 3 31 0 63
-8 56 -12 72 -16 133 -29 15 -3 38 -9 50 -14 13 -4 29 -6 36 -4 6 3 12 1 12
-4 0 -4 10 -9 23 -9 12 -1 54 -9 92 -18 39 -10 77 -19 86 -21 9 -2 34 -8 54
-14 21 -6 42 -8 47 -5 4 3 8 1 8 -3 0 -5 8 -9 18 -10 18 -1 57 -10 57 -13 0
-1 9 -3 20 -4 11 -1 45 -9 75 -16 30 -8 59 -13 63 -12 4 1 16 -2 26 -8 10 -5
38 -12 60 -15 23 -3 50 -9 60 -15 10 -5 21 -7 24 -4 3 3 14 1 24 -4 10 -5 34
-12 53 -16 19 -3 55 -10 80 -16 25 -6 56 -13 70 -16 14 -3 41 -9 60 -14 19 -5
46 -11 60 -14 14 -3 52 -12 85 -20 110 -27 210 -50 225 -51 9 0 21 -4 28 -9 6
-4 12 -4 12 0 0 3 7 1 15 -6 8 -7 15 -10 15 -7 0 3 17 1 38 -4 20 -5 46 -12
57 -14 11 -3 70 -16 130 -30 61 -14 121 -28 135 -31 14 -3 51 -12 83 -20 32
-8 62 -12 67 -9 4 3 10 1 12 -4 1 -5 19 -12 38 -15 19 -3 52 -10 73 -15 20 -5
37 -7 37 -4 0 3 6 1 13 -5 6 -5 28 -13 47 -16 33 -5 113 -23 135 -29 8 -3 118
-28 135 -32 34 -6 169 -38 180 -42 8 -3 22 -7 30 -8 16 -3 51 -11 90 -20 14
-4 32 -7 40 -7 8 0 21 -5 28 -11 6 -5 12 -7 12 -4 0 3 17 1 38 -4 20 -5 48
-12 62 -15 14 -3 43 -10 65 -16 22 -5 51 -12 65 -14 14 -3 33 -7 42 -10 9 -3
25 -7 36 -9 10 -2 67 -15 126 -29 59 -14 116 -26 127 -26 10 0 19 -5 19 -11 0
-5 4 -8 8 -5 5 3 35 -2 68 -10 32 -8 68 -16 79 -18 11 -2 60 -13 108 -25 49
-11 103 -24 120 -27 40 -7 48 -9 67 -17 8 -4 29 -8 45 -11 17 -2 30 -5 30 -6
0 -1 12 -3 27 -4 15 -2 33 -8 41 -14 8 -7 16 -9 19 -6 3 3 32 -2 64 -10 33 -8
70 -17 84 -20 14 -3 62 -14 108 -25 45 -10 82 -17 82 -14 0 3 6 1 13 -5 6 -5
32 -13 57 -18 47 -8 55 -10 68 -14 4 -1 11 -2 16 -1 4 1 13 -2 20 -7 6 -5 21
-8 34 -7 12 1 22 -2 22 -6 0 -4 8 -7 18 -7 9 1 43 -6 74 -14 31 -9 59 -13 62
-10 3 3 6 0 6 -7 0 -7 5 -9 11 -6 5 4 22 2 37 -3 15 -6 41 -13 58 -16 28 -4
32 -2 44 32 8 20 15 39 15 42 3 10 26 66 40 95 7 16 11 33 9 37 -3 4 0 8 5 8
6 0 10 3 9 8 -1 4 5 21 12 37 7 17 14 35 15 40 0 6 7 24 13 40 34 84 57 141
57 145 0 3 6 14 12 25 6 11 11 22 11 25 0 3 6 21 15 41 8 20 18 47 22 60 4 13
16 44 27 69 11 24 21 49 22 55 2 5 10 28 20 50 10 22 19 45 20 50 3 9 8 23 24
65 3 8 6 17 7 20 6 18 19 49 30 75 17 37 86 216 90 230 1 6 7 21 13 35 26 62
35 86 38 95 1 6 8 24 15 40 7 17 13 32 14 35 1 3 5 14 10 25 4 11 20 52 35 90
15 39 43 108 61 155 19 47 34 87 35 90 0 3 4 14 9 25 66 165 80 205 77 217 -1
5 2 8 8 8 5 0 13 15 18 32 12 43 97 261 136 350 9 20 16 43 16 52 0 9 5 16 12
16 6 0 8 3 5 6 -3 4 -2 15 4 26 6 11 12 29 14 40 3 12 8 24 12 27 8 6 15 27
16 49 0 6 4 12 9 12 4 0 8 8 8 18 0 10 5 23 12 30 7 7 9 12 5 12 -4 0 1 17 12
39 11 21 17 41 14 45 -4 3 -1 6 5 6 7 0 11 3 10 8 -1 4 13 45 31 92 58 151 83
214 96 245 19 46 60 149 60 155 1 12 69 176 78 188 5 6 6 12 2 12 -4 0 -2 7 5
15 7 8 9 15 6 15 -4 0 -1 12 7 28 16 29 88 210 91 227 1 6 7 19 13 30 6 11 11
22 11 25 0 3 7 23 17 45 9 22 18 45 19 52 1 7 5 16 9 19 4 4 7 15 7 25 0 10 7
25 16 33 8 9 13 16 10 16 -3 0 6 28 19 63 36 97 104 269 117 297 6 14 13 34
15 44 2 11 7 24 12 30 4 6 18 40 31 76 12 36 26 70 30 75 4 6 13 31 21 58 7
26 17 47 21 47 4 0 8 9 8 20 0 11 4 28 9 38 14 26 37 82 52 127 8 22 18 43 22
46 5 3 8 8 7 10 -2 5 4 21 47 134 19 50 36 95 37 100 1 6 12 32 24 59 12 27
22 52 22 55 0 4 9 25 19 47 11 21 17 42 14 46 -2 5 0 8 4 8 8 0 37 63 31 66
-2 1 6 11 16 23 11 12 16 21 12 21 -4 0 -1 12 8 28 26 50 59 137 58 155 0 9 3
17 9 17 5 0 9 8 9 18 0 10 3 22 7 26 4 3 8 12 9 19 1 7 10 39 20 72 10 33 19
65 20 70 1 6 9 46 19 90 21 98 24 120 28 165 2 19 6 40 9 45 7 12 2 362 -6
420 -3 22 -9 53 -13 70 -4 16 -8 35 -8 40 -1 6 -8 37 -15 70 -8 33 -13 63 -12
68 1 4 -3 7 -8 7 -6 0 -10 9 -10 20 0 47 -95 218 -169 304 -80 92 -265 256
-290 256 -5 0 -11 4 -13 9 -1 5 -35 28 -73 52 -103 64 -102 64 -201 112 -79
39 -126 60 -221 98 -13 5 -33 13 -45 18 -67 28 -227 79 -232 74 -3 -4 -6 -1
-6 5 0 7 -9 12 -20 12 -12 0 -34 7 -50 15 -17 9 -30 13 -30 11 0 -3 -26 4 -57
15 -32 11 -68 20 -80 21 -13 2 -23 5 -23 8 0 3 -12 7 -26 8 -15 1 -33 7 -40
13 -8 6 -14 9 -14 5 0 -3 -16 0 -35 8 -19 8 -35 13 -35 11 0 -2 -19 2 -41 11
-23 8 -51 16 -63 19 -27 5 -137 35 -156 43 -8 3 -18 6 -22 7 -5 2 -9 3 -10 5
-2 1 -10 3 -19 5 -19 3 -29 6 -129 35 -41 12 -92 28 -112 36 -21 8 -38 12 -38
9 0 -3 -14 2 -31 10 -17 9 -33 14 -37 11 -3 -3 -10 -2 -16 3 -15 11 -260 91
-297 97 -16 2 -44 6 -61 9 -18 3 -60 8 -93 10 -33 3 -71 6 -85 8 -14 1 -31 -2
-37 -7 -7 -4 -13 -5 -13 0 0 5 -24 8 -52 6 -29 -1 -62 -2 -73 -2 -34 2 -37 2
-150 -6 -60 -4 -130 -8 -155 -8 -55 0 -172 13 -178 19 -3 3 -11 0 -19 -6 -8
-8 -13 -8 -13 -1 0 7 -66 10 -190 10 -138 0 -190 -3 -190 -11 0 -8 -3 -8 -8 1
-5 7 -10 10 -13 8z"/>
</g>
</svg>
